<?xml version="1.0" encoding="utf-8" standalone="no"?>
<!DOCTYPE svg PUBLIC "-//W3C//DTD SVG 1.1//EN"
  "http://www.w3.org/Graphics/SVG/1.1/DTD/svg11.dtd">
<!-- Created with matplotlib (https://matplotlib.org/) -->
<svg height="432pt" version="1.1" viewBox="0 0 576 432" width="576pt" xmlns="http://www.w3.org/2000/svg" xmlns:xlink="http://www.w3.org/1999/xlink">
 <metadata>
  <rdf:RDF xmlns:cc="http://creativecommons.org/ns#" xmlns:dc="http://purl.org/dc/elements/1.1/" xmlns:rdf="http://www.w3.org/1999/02/22-rdf-syntax-ns#">
   <cc:Work>
    <dc:type rdf:resource="http://purl.org/dc/dcmitype/StillImage"/>
    <dc:date>2020-11-09T21:21:06.391470</dc:date>
    <dc:format>image/svg+xml</dc:format>
    <dc:creator>
     <cc:Agent>
      <dc:title>Matplotlib v3.3.2, https://matplotlib.org/</dc:title>
     </cc:Agent>
    </dc:creator>
   </cc:Work>
  </rdf:RDF>
 </metadata>
 <defs>
  <style type="text/css">*{stroke-linecap:butt;stroke-linejoin:round;}</style>
 </defs>
 <g id="figure_1">
  <g id="patch_1">
   <path d="M 0 432 
L 576 432 
L 576 0 
L 0 0 
z
" style="fill:#ffffff;"/>
  </g>
  <g id="axes_1">
   <g id="patch_2">
    <path d="M 50.87 179.44 
L 280.094046 179.44 
L 280.094046 26.88 
L 50.87 26.88 
z
" style="fill:#ffffff;"/>
   </g>
   <g id="matplotlib.axis_1">
    <g id="xtick_1">
     <g id="line2d_1">
      <path clip-path="url(#p297699f5a4)" d="M 61.254274 179.44 
L 61.254274 26.88 
" style="fill:none;stroke:#b0b0b0;stroke-linecap:square;stroke-width:0.8;"/>
     </g>
     <g id="line2d_2">
      <defs>
       <path d="M 0 0 
L 0 3.5 
" id="m7c366432b4" style="stroke:#000000;stroke-width:0.8;"/>
      </defs>
      <g>
       <use style="stroke:#000000;stroke-width:0.8;" x="61.254274" xlink:href="#m7c366432b4" y="179.44"/>
      </g>
     </g>
     <g id="text_1">
      <!-- 0 -->
      <g transform="translate(58.073024 194.038437)scale(0.1 -0.1)">
       <defs>
        <path d="M 31.78125 66.40625 
Q 24.171875 66.40625 20.328125 58.90625 
Q 16.5 51.421875 16.5 36.375 
Q 16.5 21.390625 20.328125 13.890625 
Q 24.171875 6.390625 31.78125 6.390625 
Q 39.453125 6.390625 43.28125 13.890625 
Q 47.125 21.390625 47.125 36.375 
Q 47.125 51.421875 43.28125 58.90625 
Q 39.453125 66.40625 31.78125 66.40625 
z
M 31.78125 74.21875 
Q 44.046875 74.21875 50.515625 64.515625 
Q 56.984375 54.828125 56.984375 36.375 
Q 56.984375 17.96875 50.515625 8.265625 
Q 44.046875 -1.421875 31.78125 -1.421875 
Q 19.53125 -1.421875 13.0625 8.265625 
Q 6.59375 17.96875 6.59375 36.375 
Q 6.59375 54.828125 13.0625 64.515625 
Q 19.53125 74.21875 31.78125 74.21875 
z
" id="DejaVuSans-48"/>
       </defs>
       <use xlink:href="#DejaVuSans-48"/>
      </g>
     </g>
    </g>
    <g id="xtick_2">
     <g id="line2d_3">
      <path clip-path="url(#p297699f5a4)" d="M 96.25555 179.44 
L 96.25555 26.88 
" style="fill:none;stroke:#b0b0b0;stroke-linecap:square;stroke-width:0.8;"/>
     </g>
     <g id="line2d_4">
      <g>
       <use style="stroke:#000000;stroke-width:0.8;" x="96.25555" xlink:href="#m7c366432b4" y="179.44"/>
      </g>
     </g>
     <g id="text_2">
      <!-- 100 -->
      <g transform="translate(86.7118 194.038437)scale(0.1 -0.1)">
       <defs>
        <path d="M 12.40625 8.296875 
L 28.515625 8.296875 
L 28.515625 63.921875 
L 10.984375 60.40625 
L 10.984375 69.390625 
L 28.421875 72.90625 
L 38.28125 72.90625 
L 38.28125 8.296875 
L 54.390625 8.296875 
L 54.390625 0 
L 12.40625 0 
z
" id="DejaVuSans-49"/>
       </defs>
       <use xlink:href="#DejaVuSans-49"/>
       <use x="63.623047" xlink:href="#DejaVuSans-48"/>
       <use x="127.246094" xlink:href="#DejaVuSans-48"/>
      </g>
     </g>
    </g>
    <g id="xtick_3">
     <g id="line2d_5">
      <path clip-path="url(#p297699f5a4)" d="M 131.256827 179.44 
L 131.256827 26.88 
" style="fill:none;stroke:#b0b0b0;stroke-linecap:square;stroke-width:0.8;"/>
     </g>
     <g id="line2d_6">
      <g>
       <use style="stroke:#000000;stroke-width:0.8;" x="131.256827" xlink:href="#m7c366432b4" y="179.44"/>
      </g>
     </g>
     <g id="text_3">
      <!-- 200 -->
      <g transform="translate(121.713077 194.038437)scale(0.1 -0.1)">
       <defs>
        <path d="M 19.1875 8.296875 
L 53.609375 8.296875 
L 53.609375 0 
L 7.328125 0 
L 7.328125 8.296875 
Q 12.9375 14.109375 22.625 23.890625 
Q 32.328125 33.6875 34.8125 36.53125 
Q 39.546875 41.84375 41.421875 45.53125 
Q 43.3125 49.21875 43.3125 52.78125 
Q 43.3125 58.59375 39.234375 62.25 
Q 35.15625 65.921875 28.609375 65.921875 
Q 23.96875 65.921875 18.8125 64.3125 
Q 13.671875 62.703125 7.8125 59.421875 
L 7.8125 69.390625 
Q 13.765625 71.78125 18.9375 73 
Q 24.125 74.21875 28.421875 74.21875 
Q 39.75 74.21875 46.484375 68.546875 
Q 53.21875 62.890625 53.21875 53.421875 
Q 53.21875 48.921875 51.53125 44.890625 
Q 49.859375 40.875 45.40625 35.40625 
Q 44.1875 33.984375 37.640625 27.21875 
Q 31.109375 20.453125 19.1875 8.296875 
z
" id="DejaVuSans-50"/>
       </defs>
       <use xlink:href="#DejaVuSans-50"/>
       <use x="63.623047" xlink:href="#DejaVuSans-48"/>
       <use x="127.246094" xlink:href="#DejaVuSans-48"/>
      </g>
     </g>
    </g>
    <g id="xtick_4">
     <g id="line2d_7">
      <path clip-path="url(#p297699f5a4)" d="M 166.258103 179.44 
L 166.258103 26.88 
" style="fill:none;stroke:#b0b0b0;stroke-linecap:square;stroke-width:0.8;"/>
     </g>
     <g id="line2d_8">
      <g>
       <use style="stroke:#000000;stroke-width:0.8;" x="166.258103" xlink:href="#m7c366432b4" y="179.44"/>
      </g>
     </g>
     <g id="text_4">
      <!-- 300 -->
      <g transform="translate(156.714353 194.038437)scale(0.1 -0.1)">
       <defs>
        <path d="M 40.578125 39.3125 
Q 47.65625 37.796875 51.625 33 
Q 55.609375 28.21875 55.609375 21.1875 
Q 55.609375 10.40625 48.1875 4.484375 
Q 40.765625 -1.421875 27.09375 -1.421875 
Q 22.515625 -1.421875 17.65625 -0.515625 
Q 12.796875 0.390625 7.625 2.203125 
L 7.625 11.71875 
Q 11.71875 9.328125 16.59375 8.109375 
Q 21.484375 6.890625 26.8125 6.890625 
Q 36.078125 6.890625 40.9375 10.546875 
Q 45.796875 14.203125 45.796875 21.1875 
Q 45.796875 27.640625 41.28125 31.265625 
Q 36.765625 34.90625 28.71875 34.90625 
L 20.21875 34.90625 
L 20.21875 43.015625 
L 29.109375 43.015625 
Q 36.375 43.015625 40.234375 45.921875 
Q 44.09375 48.828125 44.09375 54.296875 
Q 44.09375 59.90625 40.109375 62.90625 
Q 36.140625 65.921875 28.71875 65.921875 
Q 24.65625 65.921875 20.015625 65.03125 
Q 15.375 64.15625 9.8125 62.3125 
L 9.8125 71.09375 
Q 15.4375 72.65625 20.34375 73.4375 
Q 25.25 74.21875 29.59375 74.21875 
Q 40.828125 74.21875 47.359375 69.109375 
Q 53.90625 64.015625 53.90625 55.328125 
Q 53.90625 49.265625 50.4375 45.09375 
Q 46.96875 40.921875 40.578125 39.3125 
z
" id="DejaVuSans-51"/>
       </defs>
       <use xlink:href="#DejaVuSans-51"/>
       <use x="63.623047" xlink:href="#DejaVuSans-48"/>
       <use x="127.246094" xlink:href="#DejaVuSans-48"/>
      </g>
     </g>
    </g>
    <g id="xtick_5">
     <g id="line2d_9">
      <path clip-path="url(#p297699f5a4)" d="M 201.25938 179.44 
L 201.25938 26.88 
" style="fill:none;stroke:#b0b0b0;stroke-linecap:square;stroke-width:0.8;"/>
     </g>
     <g id="line2d_10">
      <g>
       <use style="stroke:#000000;stroke-width:0.8;" x="201.25938" xlink:href="#m7c366432b4" y="179.44"/>
      </g>
     </g>
     <g id="text_5">
      <!-- 400 -->
      <g transform="translate(191.71563 194.038437)scale(0.1 -0.1)">
       <defs>
        <path d="M 37.796875 64.3125 
L 12.890625 25.390625 
L 37.796875 25.390625 
z
M 35.203125 72.90625 
L 47.609375 72.90625 
L 47.609375 25.390625 
L 58.015625 25.390625 
L 58.015625 17.1875 
L 47.609375 17.1875 
L 47.609375 0 
L 37.796875 0 
L 37.796875 17.1875 
L 4.890625 17.1875 
L 4.890625 26.703125 
z
" id="DejaVuSans-52"/>
       </defs>
       <use xlink:href="#DejaVuSans-52"/>
       <use x="63.623047" xlink:href="#DejaVuSans-48"/>
       <use x="127.246094" xlink:href="#DejaVuSans-48"/>
      </g>
     </g>
    </g>
    <g id="xtick_6">
     <g id="line2d_11">
      <path clip-path="url(#p297699f5a4)" d="M 236.260656 179.44 
L 236.260656 26.88 
" style="fill:none;stroke:#b0b0b0;stroke-linecap:square;stroke-width:0.8;"/>
     </g>
     <g id="line2d_12">
      <g>
       <use style="stroke:#000000;stroke-width:0.8;" x="236.260656" xlink:href="#m7c366432b4" y="179.44"/>
      </g>
     </g>
     <g id="text_6">
      <!-- 500 -->
      <g transform="translate(226.716906 194.038437)scale(0.1 -0.1)">
       <defs>
        <path d="M 10.796875 72.90625 
L 49.515625 72.90625 
L 49.515625 64.59375 
L 19.828125 64.59375 
L 19.828125 46.734375 
Q 21.96875 47.46875 24.109375 47.828125 
Q 26.265625 48.1875 28.421875 48.1875 
Q 40.625 48.1875 47.75 41.5 
Q 54.890625 34.8125 54.890625 23.390625 
Q 54.890625 11.625 47.5625 5.09375 
Q 40.234375 -1.421875 26.90625 -1.421875 
Q 22.3125 -1.421875 17.546875 -0.640625 
Q 12.796875 0.140625 7.71875 1.703125 
L 7.71875 11.625 
Q 12.109375 9.234375 16.796875 8.0625 
Q 21.484375 6.890625 26.703125 6.890625 
Q 35.15625 6.890625 40.078125 11.328125 
Q 45.015625 15.765625 45.015625 23.390625 
Q 45.015625 31 40.078125 35.4375 
Q 35.15625 39.890625 26.703125 39.890625 
Q 22.75 39.890625 18.8125 39.015625 
Q 14.890625 38.140625 10.796875 36.28125 
z
" id="DejaVuSans-53"/>
       </defs>
       <use xlink:href="#DejaVuSans-53"/>
       <use x="63.623047" xlink:href="#DejaVuSans-48"/>
       <use x="127.246094" xlink:href="#DejaVuSans-48"/>
      </g>
     </g>
    </g>
    <g id="xtick_7">
     <g id="line2d_13">
      <path clip-path="url(#p297699f5a4)" d="M 271.261933 179.44 
L 271.261933 26.88 
" style="fill:none;stroke:#b0b0b0;stroke-linecap:square;stroke-width:0.8;"/>
     </g>
     <g id="line2d_14">
      <g>
       <use style="stroke:#000000;stroke-width:0.8;" x="271.261933" xlink:href="#m7c366432b4" y="179.44"/>
      </g>
     </g>
     <g id="text_7">
      <!-- 600 -->
      <g transform="translate(261.718183 194.038437)scale(0.1 -0.1)">
       <defs>
        <path d="M 33.015625 40.375 
Q 26.375 40.375 22.484375 35.828125 
Q 18.609375 31.296875 18.609375 23.390625 
Q 18.609375 15.53125 22.484375 10.953125 
Q 26.375 6.390625 33.015625 6.390625 
Q 39.65625 6.390625 43.53125 10.953125 
Q 47.40625 15.53125 47.40625 23.390625 
Q 47.40625 31.296875 43.53125 35.828125 
Q 39.65625 40.375 33.015625 40.375 
z
M 52.59375 71.296875 
L 52.59375 62.3125 
Q 48.875 64.0625 45.09375 64.984375 
Q 41.3125 65.921875 37.59375 65.921875 
Q 27.828125 65.921875 22.671875 59.328125 
Q 17.53125 52.734375 16.796875 39.40625 
Q 19.671875 43.65625 24.015625 45.921875 
Q 28.375 48.1875 33.59375 48.1875 
Q 44.578125 48.1875 50.953125 41.515625 
Q 57.328125 34.859375 57.328125 23.390625 
Q 57.328125 12.15625 50.6875 5.359375 
Q 44.046875 -1.421875 33.015625 -1.421875 
Q 20.359375 -1.421875 13.671875 8.265625 
Q 6.984375 17.96875 6.984375 36.375 
Q 6.984375 53.65625 15.1875 63.9375 
Q 23.390625 74.21875 37.203125 74.21875 
Q 40.921875 74.21875 44.703125 73.484375 
Q 48.484375 72.75 52.59375 71.296875 
z
" id="DejaVuSans-54"/>
       </defs>
       <use xlink:href="#DejaVuSans-54"/>
       <use x="63.623047" xlink:href="#DejaVuSans-48"/>
       <use x="127.246094" xlink:href="#DejaVuSans-48"/>
      </g>
     </g>
    </g>
    <g id="text_8">
     <!-- Time (s) -->
     <g transform="translate(145.153117 207.716562)scale(0.1 -0.1)">
      <defs>
       <path d="M -0.296875 72.90625 
L 61.375 72.90625 
L 61.375 64.59375 
L 35.5 64.59375 
L 35.5 0 
L 25.59375 0 
L 25.59375 64.59375 
L -0.296875 64.59375 
z
" id="DejaVuSans-84"/>
       <path d="M 9.421875 54.6875 
L 18.40625 54.6875 
L 18.40625 0 
L 9.421875 0 
z
M 9.421875 75.984375 
L 18.40625 75.984375 
L 18.40625 64.59375 
L 9.421875 64.59375 
z
" id="DejaVuSans-105"/>
       <path d="M 52 44.1875 
Q 55.375 50.25 60.0625 53.125 
Q 64.75 56 71.09375 56 
Q 79.640625 56 84.28125 50.015625 
Q 88.921875 44.046875 88.921875 33.015625 
L 88.921875 0 
L 79.890625 0 
L 79.890625 32.71875 
Q 79.890625 40.578125 77.09375 44.375 
Q 74.3125 48.1875 68.609375 48.1875 
Q 61.625 48.1875 57.5625 43.546875 
Q 53.515625 38.921875 53.515625 30.90625 
L 53.515625 0 
L 44.484375 0 
L 44.484375 32.71875 
Q 44.484375 40.625 41.703125 44.40625 
Q 38.921875 48.1875 33.109375 48.1875 
Q 26.21875 48.1875 22.15625 43.53125 
Q 18.109375 38.875 18.109375 30.90625 
L 18.109375 0 
L 9.078125 0 
L 9.078125 54.6875 
L 18.109375 54.6875 
L 18.109375 46.1875 
Q 21.1875 51.21875 25.484375 53.609375 
Q 29.78125 56 35.6875 56 
Q 41.65625 56 45.828125 52.96875 
Q 50 49.953125 52 44.1875 
z
" id="DejaVuSans-109"/>
       <path d="M 56.203125 29.59375 
L 56.203125 25.203125 
L 14.890625 25.203125 
Q 15.484375 15.921875 20.484375 11.0625 
Q 25.484375 6.203125 34.421875 6.203125 
Q 39.59375 6.203125 44.453125 7.46875 
Q 49.3125 8.734375 54.109375 11.28125 
L 54.109375 2.78125 
Q 49.265625 0.734375 44.1875 -0.34375 
Q 39.109375 -1.421875 33.890625 -1.421875 
Q 20.796875 -1.421875 13.15625 6.1875 
Q 5.515625 13.8125 5.515625 26.8125 
Q 5.515625 40.234375 12.765625 48.109375 
Q 20.015625 56 32.328125 56 
Q 43.359375 56 49.78125 48.890625 
Q 56.203125 41.796875 56.203125 29.59375 
z
M 47.21875 32.234375 
Q 47.125 39.59375 43.09375 43.984375 
Q 39.0625 48.390625 32.421875 48.390625 
Q 24.90625 48.390625 20.390625 44.140625 
Q 15.875 39.890625 15.1875 32.171875 
z
" id="DejaVuSans-101"/>
       <path id="DejaVuSans-32"/>
       <path d="M 31 75.875 
Q 24.46875 64.65625 21.28125 53.65625 
Q 18.109375 42.671875 18.109375 31.390625 
Q 18.109375 20.125 21.3125 9.0625 
Q 24.515625 -2 31 -13.1875 
L 23.1875 -13.1875 
Q 15.875 -1.703125 12.234375 9.375 
Q 8.59375 20.453125 8.59375 31.390625 
Q 8.59375 42.28125 12.203125 53.3125 
Q 15.828125 64.359375 23.1875 75.875 
z
" id="DejaVuSans-40"/>
       <path d="M 44.28125 53.078125 
L 44.28125 44.578125 
Q 40.484375 46.53125 36.375 47.5 
Q 32.28125 48.484375 27.875 48.484375 
Q 21.1875 48.484375 17.84375 46.4375 
Q 14.5 44.390625 14.5 40.28125 
Q 14.5 37.15625 16.890625 35.375 
Q 19.28125 33.59375 26.515625 31.984375 
L 29.59375 31.296875 
Q 39.15625 29.25 43.1875 25.515625 
Q 47.21875 21.78125 47.21875 15.09375 
Q 47.21875 7.46875 41.1875 3.015625 
Q 35.15625 -1.421875 24.609375 -1.421875 
Q 20.21875 -1.421875 15.453125 -0.5625 
Q 10.6875 0.296875 5.421875 2 
L 5.421875 11.28125 
Q 10.40625 8.6875 15.234375 7.390625 
Q 20.0625 6.109375 24.8125 6.109375 
Q 31.15625 6.109375 34.5625 8.28125 
Q 37.984375 10.453125 37.984375 14.40625 
Q 37.984375 18.0625 35.515625 20.015625 
Q 33.0625 21.96875 24.703125 23.78125 
L 21.578125 24.515625 
Q 13.234375 26.265625 9.515625 29.90625 
Q 5.8125 33.546875 5.8125 39.890625 
Q 5.8125 47.609375 11.28125 51.796875 
Q 16.75 56 26.8125 56 
Q 31.78125 56 36.171875 55.265625 
Q 40.578125 54.546875 44.28125 53.078125 
z
" id="DejaVuSans-115"/>
       <path d="M 8.015625 75.875 
L 15.828125 75.875 
Q 23.140625 64.359375 26.78125 53.3125 
Q 30.421875 42.28125 30.421875 31.390625 
Q 30.421875 20.453125 26.78125 9.375 
Q 23.140625 -1.703125 15.828125 -13.1875 
L 8.015625 -13.1875 
Q 14.5 -2 17.703125 9.0625 
Q 20.90625 20.125 20.90625 31.390625 
Q 20.90625 42.671875 17.703125 53.65625 
Q 14.5 64.65625 8.015625 75.875 
z
" id="DejaVuSans-41"/>
      </defs>
      <use xlink:href="#DejaVuSans-84"/>
      <use x="57.958984" xlink:href="#DejaVuSans-105"/>
      <use x="85.742188" xlink:href="#DejaVuSans-109"/>
      <use x="183.154297" xlink:href="#DejaVuSans-101"/>
      <use x="244.677734" xlink:href="#DejaVuSans-32"/>
      <use x="276.464844" xlink:href="#DejaVuSans-40"/>
      <use x="315.478516" xlink:href="#DejaVuSans-115"/>
      <use x="367.578125" xlink:href="#DejaVuSans-41"/>
     </g>
    </g>
   </g>
   <g id="matplotlib.axis_2">
    <g id="ytick_1">
     <g id="line2d_15">
      <path clip-path="url(#p297699f5a4)" d="M 50.87 172.46398 
L 280.094046 172.46398 
" style="fill:none;stroke:#b0b0b0;stroke-linecap:square;stroke-width:0.8;"/>
     </g>
     <g id="line2d_16">
      <defs>
       <path d="M 0 0 
L -3.5 0 
" id="m3d607c0e98" style="stroke:#000000;stroke-width:0.8;"/>
      </defs>
      <g>
       <use style="stroke:#000000;stroke-width:0.8;" x="50.87" xlink:href="#m3d607c0e98" y="172.46398"/>
      </g>
     </g>
     <g id="text_9">
      <!-- 0 -->
      <g transform="translate(37.5075 176.263199)scale(0.1 -0.1)">
       <use xlink:href="#DejaVuSans-48"/>
      </g>
     </g>
    </g>
    <g id="ytick_2">
     <g id="line2d_17">
      <path clip-path="url(#p297699f5a4)" d="M 50.87 149.696248 
L 280.094046 149.696248 
" style="fill:none;stroke:#b0b0b0;stroke-linecap:square;stroke-width:0.8;"/>
     </g>
     <g id="line2d_18">
      <g>
       <use style="stroke:#000000;stroke-width:0.8;" x="50.87" xlink:href="#m3d607c0e98" y="149.696248"/>
      </g>
     </g>
     <g id="text_10">
      <!-- 20 -->
      <g transform="translate(31.145 153.495467)scale(0.1 -0.1)">
       <use xlink:href="#DejaVuSans-50"/>
       <use x="63.623047" xlink:href="#DejaVuSans-48"/>
      </g>
     </g>
    </g>
    <g id="ytick_3">
     <g id="line2d_19">
      <path clip-path="url(#p297699f5a4)" d="M 50.87 126.928517 
L 280.094046 126.928517 
" style="fill:none;stroke:#b0b0b0;stroke-linecap:square;stroke-width:0.8;"/>
     </g>
     <g id="line2d_20">
      <g>
       <use style="stroke:#000000;stroke-width:0.8;" x="50.87" xlink:href="#m3d607c0e98" y="126.928517"/>
      </g>
     </g>
     <g id="text_11">
      <!-- 40 -->
      <g transform="translate(31.145 130.727736)scale(0.1 -0.1)">
       <use xlink:href="#DejaVuSans-52"/>
       <use x="63.623047" xlink:href="#DejaVuSans-48"/>
      </g>
     </g>
    </g>
    <g id="ytick_4">
     <g id="line2d_21">
      <path clip-path="url(#p297699f5a4)" d="M 50.87 104.160786 
L 280.094046 104.160786 
" style="fill:none;stroke:#b0b0b0;stroke-linecap:square;stroke-width:0.8;"/>
     </g>
     <g id="line2d_22">
      <g>
       <use style="stroke:#000000;stroke-width:0.8;" x="50.87" xlink:href="#m3d607c0e98" y="104.160786"/>
      </g>
     </g>
     <g id="text_12">
      <!-- 60 -->
      <g transform="translate(31.145 107.960005)scale(0.1 -0.1)">
       <use xlink:href="#DejaVuSans-54"/>
       <use x="63.623047" xlink:href="#DejaVuSans-48"/>
      </g>
     </g>
    </g>
    <g id="ytick_5">
     <g id="line2d_23">
      <path clip-path="url(#p297699f5a4)" d="M 50.87 81.393055 
L 280.094046 81.393055 
" style="fill:none;stroke:#b0b0b0;stroke-linecap:square;stroke-width:0.8;"/>
     </g>
     <g id="line2d_24">
      <g>
       <use style="stroke:#000000;stroke-width:0.8;" x="50.87" xlink:href="#m3d607c0e98" y="81.393055"/>
      </g>
     </g>
     <g id="text_13">
      <!-- 80 -->
      <g transform="translate(31.145 85.192273)scale(0.1 -0.1)">
       <defs>
        <path d="M 31.78125 34.625 
Q 24.75 34.625 20.71875 30.859375 
Q 16.703125 27.09375 16.703125 20.515625 
Q 16.703125 13.921875 20.71875 10.15625 
Q 24.75 6.390625 31.78125 6.390625 
Q 38.8125 6.390625 42.859375 10.171875 
Q 46.921875 13.96875 46.921875 20.515625 
Q 46.921875 27.09375 42.890625 30.859375 
Q 38.875 34.625 31.78125 34.625 
z
M 21.921875 38.8125 
Q 15.578125 40.375 12.03125 44.71875 
Q 8.5 49.078125 8.5 55.328125 
Q 8.5 64.0625 14.71875 69.140625 
Q 20.953125 74.21875 31.78125 74.21875 
Q 42.671875 74.21875 48.875 69.140625 
Q 55.078125 64.0625 55.078125 55.328125 
Q 55.078125 49.078125 51.53125 44.71875 
Q 48 40.375 41.703125 38.8125 
Q 48.828125 37.15625 52.796875 32.3125 
Q 56.78125 27.484375 56.78125 20.515625 
Q 56.78125 9.90625 50.3125 4.234375 
Q 43.84375 -1.421875 31.78125 -1.421875 
Q 19.734375 -1.421875 13.25 4.234375 
Q 6.78125 9.90625 6.78125 20.515625 
Q 6.78125 27.484375 10.78125 32.3125 
Q 14.796875 37.15625 21.921875 38.8125 
z
M 18.3125 54.390625 
Q 18.3125 48.734375 21.84375 45.5625 
Q 25.390625 42.390625 31.78125 42.390625 
Q 38.140625 42.390625 41.71875 45.5625 
Q 45.3125 48.734375 45.3125 54.390625 
Q 45.3125 60.0625 41.71875 63.234375 
Q 38.140625 66.40625 31.78125 66.40625 
Q 25.390625 66.40625 21.84375 63.234375 
Q 18.3125 60.0625 18.3125 54.390625 
z
" id="DejaVuSans-56"/>
       </defs>
       <use xlink:href="#DejaVuSans-56"/>
       <use x="63.623047" xlink:href="#DejaVuSans-48"/>
      </g>
     </g>
    </g>
    <g id="ytick_6">
     <g id="line2d_25">
      <path clip-path="url(#p297699f5a4)" d="M 50.87 58.625323 
L 280.094046 58.625323 
" style="fill:none;stroke:#b0b0b0;stroke-linecap:square;stroke-width:0.8;"/>
     </g>
     <g id="line2d_26">
      <g>
       <use style="stroke:#000000;stroke-width:0.8;" x="50.87" xlink:href="#m3d607c0e98" y="58.625323"/>
      </g>
     </g>
     <g id="text_14">
      <!-- 100 -->
      <g transform="translate(24.7825 62.424542)scale(0.1 -0.1)">
       <use xlink:href="#DejaVuSans-49"/>
       <use x="63.623047" xlink:href="#DejaVuSans-48"/>
       <use x="127.246094" xlink:href="#DejaVuSans-48"/>
      </g>
     </g>
    </g>
    <g id="ytick_7">
     <g id="line2d_27">
      <path clip-path="url(#p297699f5a4)" d="M 50.87 35.857592 
L 280.094046 35.857592 
" style="fill:none;stroke:#b0b0b0;stroke-linecap:square;stroke-width:0.8;"/>
     </g>
     <g id="line2d_28">
      <g>
       <use style="stroke:#000000;stroke-width:0.8;" x="50.87" xlink:href="#m3d607c0e98" y="35.857592"/>
      </g>
     </g>
     <g id="text_15">
      <!-- 120 -->
      <g transform="translate(24.7825 39.656811)scale(0.1 -0.1)">
       <use xlink:href="#DejaVuSans-49"/>
       <use x="63.623047" xlink:href="#DejaVuSans-50"/>
       <use x="127.246094" xlink:href="#DejaVuSans-48"/>
      </g>
     </g>
    </g>
    <g id="text_16">
     <!-- Height (km) -->
     <g transform="translate(18.702813 132.945156)rotate(-90)scale(0.1 -0.1)">
      <defs>
       <path d="M 9.8125 72.90625 
L 19.671875 72.90625 
L 19.671875 43.015625 
L 55.515625 43.015625 
L 55.515625 72.90625 
L 65.375 72.90625 
L 65.375 0 
L 55.515625 0 
L 55.515625 34.71875 
L 19.671875 34.71875 
L 19.671875 0 
L 9.8125 0 
z
" id="DejaVuSans-72"/>
       <path d="M 45.40625 27.984375 
Q 45.40625 37.75 41.375 43.109375 
Q 37.359375 48.484375 30.078125 48.484375 
Q 22.859375 48.484375 18.828125 43.109375 
Q 14.796875 37.75 14.796875 27.984375 
Q 14.796875 18.265625 18.828125 12.890625 
Q 22.859375 7.515625 30.078125 7.515625 
Q 37.359375 7.515625 41.375 12.890625 
Q 45.40625 18.265625 45.40625 27.984375 
z
M 54.390625 6.78125 
Q 54.390625 -7.171875 48.1875 -13.984375 
Q 42 -20.796875 29.203125 -20.796875 
Q 24.46875 -20.796875 20.265625 -20.09375 
Q 16.0625 -19.390625 12.109375 -17.921875 
L 12.109375 -9.1875 
Q 16.0625 -11.328125 19.921875 -12.34375 
Q 23.78125 -13.375 27.78125 -13.375 
Q 36.625 -13.375 41.015625 -8.765625 
Q 45.40625 -4.15625 45.40625 5.171875 
L 45.40625 9.625 
Q 42.625 4.78125 38.28125 2.390625 
Q 33.9375 0 27.875 0 
Q 17.828125 0 11.671875 7.65625 
Q 5.515625 15.328125 5.515625 27.984375 
Q 5.515625 40.671875 11.671875 48.328125 
Q 17.828125 56 27.875 56 
Q 33.9375 56 38.28125 53.609375 
Q 42.625 51.21875 45.40625 46.390625 
L 45.40625 54.6875 
L 54.390625 54.6875 
z
" id="DejaVuSans-103"/>
       <path d="M 54.890625 33.015625 
L 54.890625 0 
L 45.90625 0 
L 45.90625 32.71875 
Q 45.90625 40.484375 42.875 44.328125 
Q 39.84375 48.1875 33.796875 48.1875 
Q 26.515625 48.1875 22.3125 43.546875 
Q 18.109375 38.921875 18.109375 30.90625 
L 18.109375 0 
L 9.078125 0 
L 9.078125 75.984375 
L 18.109375 75.984375 
L 18.109375 46.1875 
Q 21.34375 51.125 25.703125 53.5625 
Q 30.078125 56 35.796875 56 
Q 45.21875 56 50.046875 50.171875 
Q 54.890625 44.34375 54.890625 33.015625 
z
" id="DejaVuSans-104"/>
       <path d="M 18.3125 70.21875 
L 18.3125 54.6875 
L 36.8125 54.6875 
L 36.8125 47.703125 
L 18.3125 47.703125 
L 18.3125 18.015625 
Q 18.3125 11.328125 20.140625 9.421875 
Q 21.96875 7.515625 27.59375 7.515625 
L 36.8125 7.515625 
L 36.8125 0 
L 27.59375 0 
Q 17.1875 0 13.234375 3.875 
Q 9.28125 7.765625 9.28125 18.015625 
L 9.28125 47.703125 
L 2.6875 47.703125 
L 2.6875 54.6875 
L 9.28125 54.6875 
L 9.28125 70.21875 
z
" id="DejaVuSans-116"/>
       <path d="M 9.078125 75.984375 
L 18.109375 75.984375 
L 18.109375 31.109375 
L 44.921875 54.6875 
L 56.390625 54.6875 
L 27.390625 29.109375 
L 57.625 0 
L 45.90625 0 
L 18.109375 26.703125 
L 18.109375 0 
L 9.078125 0 
z
" id="DejaVuSans-107"/>
      </defs>
      <use xlink:href="#DejaVuSans-72"/>
      <use x="75.195312" xlink:href="#DejaVuSans-101"/>
      <use x="136.71875" xlink:href="#DejaVuSans-105"/>
      <use x="164.501953" xlink:href="#DejaVuSans-103"/>
      <use x="227.978516" xlink:href="#DejaVuSans-104"/>
      <use x="291.357422" xlink:href="#DejaVuSans-116"/>
      <use x="330.566406" xlink:href="#DejaVuSans-32"/>
      <use x="362.353516" xlink:href="#DejaVuSans-40"/>
      <use x="401.367188" xlink:href="#DejaVuSans-107"/>
      <use x="459.277344" xlink:href="#DejaVuSans-109"/>
      <use x="556.689453" xlink:href="#DejaVuSans-41"/>
     </g>
    </g>
   </g>
   <g id="line2d_29">
    <path clip-path="url(#p297699f5a4)" d="M 61.289275 33.814545 
L 64.562829 46.698759 
L 67.947384 59.061791 
L 71.079839 69.625457 
L 73.917054 78.442187 
L 76.446344 85.651916 
L 78.812789 91.753966 
L 80.79732 96.282147 
L 82.454827 99.556165 
L 84.248403 102.598234 
L 85.85647 104.919909 
L 87.38319 106.749428 
L 88.800583 108.114455 
L 90.047353 109.052673 
L 91.412123 109.809075 
L 92.691368 110.277516 
L 94.126233 110.551097 
L 95.536305 110.590272 
L 97.13928 110.398589 
L 98.858167 109.9633 
L 100.968484 109.177653 
L 103.527096 107.964391 
L 106.956624 106.082398 
L 116.173517 100.908891 
L 119.831663 99.163792 
L 122.994521 97.892625 
L 125.949025 96.934813 
L 128.632819 96.274335 
L 131.396239 95.815473 
L 134.216313 95.588788 
L 137.053264 95.615088 
L 139.869027 95.899357 
L 142.618121 96.42873 
L 145.259869 97.173472 
L 147.769393 98.094978 
L 150.459889 99.312357 
L 153.244495 100.817171 
L 156.061002 102.583426 
L 159.104159 104.751457 
L 162.495275 107.453938 
L 166.306973 110.79132 
L 171.294712 115.481289 
L 180.019852 123.726598 
L 183.777143 126.939215 
L 187.487983 129.82615 
L 192.181836 133.170421 
L 205.280868 142.330632 
L 212.579749 147.869203 
L 218.99294 152.648325 
L 222.941765 155.321683 
L 226.608347 157.531965 
L 230.275512 159.472328 
L 234.297448 161.331825 
L 239.087779 163.28954 
L 244.65133 165.316998 
L 251.005759 167.392838 
L 258.299197 169.537367 
L 266.554164 171.729784 
L 269.674771 172.505455 
L 269.674771 172.505455 
" style="fill:none;stroke:#0000ff;stroke-linecap:square;stroke-opacity:0.8;stroke-width:3;"/>
   </g>
   <g id="patch_3">
    <path d="M 50.87 179.44 
L 50.87 26.88 
" style="fill:none;stroke:#000000;stroke-linecap:square;stroke-linejoin:miter;stroke-width:0.8;"/>
   </g>
   <g id="patch_4">
    <path d="M 280.094046 179.44 
L 280.094046 26.88 
" style="fill:none;stroke:#000000;stroke-linecap:square;stroke-linejoin:miter;stroke-width:0.8;"/>
   </g>
   <g id="patch_5">
    <path d="M 50.87 179.44 
L 280.094046 179.44 
" style="fill:none;stroke:#000000;stroke-linecap:square;stroke-linejoin:miter;stroke-width:0.8;"/>
   </g>
   <g id="patch_6">
    <path d="M 50.87 26.88 
L 280.094046 26.88 
" style="fill:none;stroke:#000000;stroke-linecap:square;stroke-linejoin:miter;stroke-width:0.8;"/>
   </g>
   <g id="text_17">
    <!--   -->
    <g transform="translate(163.575148 20.88)scale(0.12 -0.12)">
     <use xlink:href="#DejaVuSans-32"/>
    </g>
   </g>
  </g>
  <g id="axes_2">
   <g id="patch_7">
    <path d="M 334.299139 179.44 
L 563.523185 179.44 
L 563.523185 26.88 
L 334.299139 26.88 
z
" style="fill:#ffffff;"/>
   </g>
   <g id="matplotlib.axis_3">
    <g id="xtick_8">
     <g id="line2d_30">
      <path clip-path="url(#p0a1d1da14d)" d="M 344.683413 179.44 
L 344.683413 26.88 
" style="fill:none;stroke:#b0b0b0;stroke-linecap:square;stroke-width:0.8;"/>
     </g>
     <g id="line2d_31">
      <g>
       <use style="stroke:#000000;stroke-width:0.8;" x="344.683413" xlink:href="#m7c366432b4" y="179.44"/>
      </g>
     </g>
     <g id="text_18">
      <!-- 0 -->
      <g transform="translate(341.502163 194.038437)scale(0.1 -0.1)">
       <use xlink:href="#DejaVuSans-48"/>
      </g>
     </g>
    </g>
    <g id="xtick_9">
     <g id="line2d_32">
      <path clip-path="url(#p0a1d1da14d)" d="M 379.684689 179.44 
L 379.684689 26.88 
" style="fill:none;stroke:#b0b0b0;stroke-linecap:square;stroke-width:0.8;"/>
     </g>
     <g id="line2d_33">
      <g>
       <use style="stroke:#000000;stroke-width:0.8;" x="379.684689" xlink:href="#m7c366432b4" y="179.44"/>
      </g>
     </g>
     <g id="text_19">
      <!-- 100 -->
      <g transform="translate(370.140939 194.038437)scale(0.1 -0.1)">
       <use xlink:href="#DejaVuSans-49"/>
       <use x="63.623047" xlink:href="#DejaVuSans-48"/>
       <use x="127.246094" xlink:href="#DejaVuSans-48"/>
      </g>
     </g>
    </g>
    <g id="xtick_10">
     <g id="line2d_34">
      <path clip-path="url(#p0a1d1da14d)" d="M 414.685966 179.44 
L 414.685966 26.88 
" style="fill:none;stroke:#b0b0b0;stroke-linecap:square;stroke-width:0.8;"/>
     </g>
     <g id="line2d_35">
      <g>
       <use style="stroke:#000000;stroke-width:0.8;" x="414.685966" xlink:href="#m7c366432b4" y="179.44"/>
      </g>
     </g>
     <g id="text_20">
      <!-- 200 -->
      <g transform="translate(405.142216 194.038437)scale(0.1 -0.1)">
       <use xlink:href="#DejaVuSans-50"/>
       <use x="63.623047" xlink:href="#DejaVuSans-48"/>
       <use x="127.246094" xlink:href="#DejaVuSans-48"/>
      </g>
     </g>
    </g>
    <g id="xtick_11">
     <g id="line2d_36">
      <path clip-path="url(#p0a1d1da14d)" d="M 449.687242 179.44 
L 449.687242 26.88 
" style="fill:none;stroke:#b0b0b0;stroke-linecap:square;stroke-width:0.8;"/>
     </g>
     <g id="line2d_37">
      <g>
       <use style="stroke:#000000;stroke-width:0.8;" x="449.687242" xlink:href="#m7c366432b4" y="179.44"/>
      </g>
     </g>
     <g id="text_21">
      <!-- 300 -->
      <g transform="translate(440.143492 194.038437)scale(0.1 -0.1)">
       <use xlink:href="#DejaVuSans-51"/>
       <use x="63.623047" xlink:href="#DejaVuSans-48"/>
       <use x="127.246094" xlink:href="#DejaVuSans-48"/>
      </g>
     </g>
    </g>
    <g id="xtick_12">
     <g id="line2d_38">
      <path clip-path="url(#p0a1d1da14d)" d="M 484.688519 179.44 
L 484.688519 26.88 
" style="fill:none;stroke:#b0b0b0;stroke-linecap:square;stroke-width:0.8;"/>
     </g>
     <g id="line2d_39">
      <g>
       <use style="stroke:#000000;stroke-width:0.8;" x="484.688519" xlink:href="#m7c366432b4" y="179.44"/>
      </g>
     </g>
     <g id="text_22">
      <!-- 400 -->
      <g transform="translate(475.144769 194.038437)scale(0.1 -0.1)">
       <use xlink:href="#DejaVuSans-52"/>
       <use x="63.623047" xlink:href="#DejaVuSans-48"/>
       <use x="127.246094" xlink:href="#DejaVuSans-48"/>
      </g>
     </g>
    </g>
    <g id="xtick_13">
     <g id="line2d_40">
      <path clip-path="url(#p0a1d1da14d)" d="M 519.689796 179.44 
L 519.689796 26.88 
" style="fill:none;stroke:#b0b0b0;stroke-linecap:square;stroke-width:0.8;"/>
     </g>
     <g id="line2d_41">
      <g>
       <use style="stroke:#000000;stroke-width:0.8;" x="519.689796" xlink:href="#m7c366432b4" y="179.44"/>
      </g>
     </g>
     <g id="text_23">
      <!-- 500 -->
      <g transform="translate(510.146046 194.038437)scale(0.1 -0.1)">
       <use xlink:href="#DejaVuSans-53"/>
       <use x="63.623047" xlink:href="#DejaVuSans-48"/>
       <use x="127.246094" xlink:href="#DejaVuSans-48"/>
      </g>
     </g>
    </g>
    <g id="xtick_14">
     <g id="line2d_42">
      <path clip-path="url(#p0a1d1da14d)" d="M 554.691072 179.44 
L 554.691072 26.88 
" style="fill:none;stroke:#b0b0b0;stroke-linecap:square;stroke-width:0.8;"/>
     </g>
     <g id="line2d_43">
      <g>
       <use style="stroke:#000000;stroke-width:0.8;" x="554.691072" xlink:href="#m7c366432b4" y="179.44"/>
      </g>
     </g>
     <g id="text_24">
      <!-- 600 -->
      <g transform="translate(545.147322 194.038437)scale(0.1 -0.1)">
       <use xlink:href="#DejaVuSans-54"/>
       <use x="63.623047" xlink:href="#DejaVuSans-48"/>
       <use x="127.246094" xlink:href="#DejaVuSans-48"/>
      </g>
     </g>
    </g>
    <g id="text_25">
     <!-- Time (s) -->
     <g transform="translate(428.582256 207.716562)scale(0.1 -0.1)">
      <use xlink:href="#DejaVuSans-84"/>
      <use x="57.958984" xlink:href="#DejaVuSans-105"/>
      <use x="85.742188" xlink:href="#DejaVuSans-109"/>
      <use x="183.154297" xlink:href="#DejaVuSans-101"/>
      <use x="244.677734" xlink:href="#DejaVuSans-32"/>
      <use x="276.464844" xlink:href="#DejaVuSans-40"/>
      <use x="315.478516" xlink:href="#DejaVuSans-115"/>
      <use x="367.578125" xlink:href="#DejaVuSans-41"/>
     </g>
    </g>
   </g>
   <g id="matplotlib.axis_4">
    <g id="ytick_8">
     <g id="line2d_44">
      <path clip-path="url(#p0a1d1da14d)" d="M 334.299139 178.804016 
L 563.523185 178.804016 
" style="fill:none;stroke:#b0b0b0;stroke-linecap:square;stroke-width:0.8;"/>
     </g>
     <g id="line2d_45">
      <g>
       <use style="stroke:#000000;stroke-width:0.8;" x="334.299139" xlink:href="#m3d607c0e98" y="178.804016"/>
      </g>
     </g>
     <g id="text_26">
      <!-- −8 -->
      <g transform="translate(312.556952 182.603235)scale(0.1 -0.1)">
       <defs>
        <path d="M 10.59375 35.5 
L 73.1875 35.5 
L 73.1875 27.203125 
L 10.59375 27.203125 
z
" id="DejaVuSans-8722"/>
       </defs>
       <use xlink:href="#DejaVuSans-8722"/>
       <use x="83.789062" xlink:href="#DejaVuSans-56"/>
      </g>
     </g>
    </g>
    <g id="ytick_9">
     <g id="line2d_46">
      <path clip-path="url(#p0a1d1da14d)" d="M 334.299139 143.024148 
L 563.523185 143.024148 
" style="fill:none;stroke:#b0b0b0;stroke-linecap:square;stroke-width:0.8;"/>
     </g>
     <g id="line2d_47">
      <g>
       <use style="stroke:#000000;stroke-width:0.8;" x="334.299139" xlink:href="#m3d607c0e98" y="143.024148"/>
      </g>
     </g>
     <g id="text_27">
      <!-- −6 -->
      <g transform="translate(312.556952 146.823366)scale(0.1 -0.1)">
       <use xlink:href="#DejaVuSans-8722"/>
       <use x="83.789062" xlink:href="#DejaVuSans-54"/>
      </g>
     </g>
    </g>
    <g id="ytick_10">
     <g id="line2d_48">
      <path clip-path="url(#p0a1d1da14d)" d="M 334.299139 107.244279 
L 563.523185 107.244279 
" style="fill:none;stroke:#b0b0b0;stroke-linecap:square;stroke-width:0.8;"/>
     </g>
     <g id="line2d_49">
      <g>
       <use style="stroke:#000000;stroke-width:0.8;" x="334.299139" xlink:href="#m3d607c0e98" y="107.244279"/>
      </g>
     </g>
     <g id="text_28">
      <!-- −4 -->
      <g transform="translate(312.556952 111.043498)scale(0.1 -0.1)">
       <use xlink:href="#DejaVuSans-8722"/>
       <use x="83.789062" xlink:href="#DejaVuSans-52"/>
      </g>
     </g>
    </g>
    <g id="ytick_11">
     <g id="line2d_50">
      <path clip-path="url(#p0a1d1da14d)" d="M 334.299139 71.46441 
L 563.523185 71.46441 
" style="fill:none;stroke:#b0b0b0;stroke-linecap:square;stroke-width:0.8;"/>
     </g>
     <g id="line2d_51">
      <g>
       <use style="stroke:#000000;stroke-width:0.8;" x="334.299139" xlink:href="#m3d607c0e98" y="71.46441"/>
      </g>
     </g>
     <g id="text_29">
      <!-- −2 -->
      <g transform="translate(312.556952 75.263629)scale(0.1 -0.1)">
       <use xlink:href="#DejaVuSans-8722"/>
       <use x="83.789062" xlink:href="#DejaVuSans-50"/>
      </g>
     </g>
    </g>
    <g id="ytick_12">
     <g id="line2d_52">
      <path clip-path="url(#p0a1d1da14d)" d="M 334.299139 35.684542 
L 563.523185 35.684542 
" style="fill:none;stroke:#b0b0b0;stroke-linecap:square;stroke-width:0.8;"/>
     </g>
     <g id="line2d_53">
      <g>
       <use style="stroke:#000000;stroke-width:0.8;" x="334.299139" xlink:href="#m3d607c0e98" y="35.684542"/>
      </g>
     </g>
     <g id="text_30">
      <!-- 0 -->
      <g transform="translate(320.936639 39.48376)scale(0.1 -0.1)">
       <use xlink:href="#DejaVuSans-48"/>
      </g>
     </g>
    </g>
    <g id="text_31">
     <!-- g -->
     <g transform="translate(306.477264 106.334219)rotate(-90)scale(0.1 -0.1)">
      <use xlink:href="#DejaVuSans-103"/>
     </g>
    </g>
   </g>
   <g id="line2d_54">
    <path clip-path="url(#p0a1d1da14d)" d="M 344.718414 35.684542 
L 346.154188 35.684542 
L 346.824697 33.814545 
L 351.026803 34.138944 
L 352.647422 34.445999 
L 354.013603 34.935365 
L 354.979692 35.515054 
L 355.860453 36.315866 
L 356.901437 37.661535 
L 357.786031 39.28207 
L 358.670442 41.47857 
L 359.610876 44.579898 
L 360.51991 48.338298 
L 361.784004 56.368428 
L 362.962117 65.675256 
L 364.107094 76.686681 
L 365.565351 93.052571 
L 365.778336 95.585349 
L 365.883967 94.853378 
L 369.632209 140.109785 
L 370.934331 153.474447 
L 371.956365 161.789031 
L 372.811856 166.97834 
L 373.476493 169.811968 
L 373.884291 171.01882 
L 374.437114 172.059137 
L 374.841263 172.471958 
L 375.187174 172.469736 
L 375.509596 172.227116 
L 375.970654 171.507929 
L 376.560223 169.999461 
L 377.273271 167.396235 
L 378.117897 163.389943 
L 379.251697 156.813059 
L 380.869832 145.965863 
L 385.813296 112.10132 
L 387.722483 101.035967 
L 389.225187 93.442659 
L 391.193349 84.772654 
L 392.604871 79.252453 
L 394.224636 73.861316 
L 395.799184 69.40369 
L 397.36909 65.618068 
L 398.958724 62.355532 
L 400.580287 59.534795 
L 402.241492 57.097195 
L 403.948419 54.996058 
L 405.706576 53.195974 
L 407.516836 51.667574 
L 409.378164 50.388135 
L 411.286531 49.338934 
L 413.236707 48.503899 
L 415.225579 47.868907 
L 417.239993 47.425941 
L 419.673627 47.139175 
L 422.0967 47.113267 
L 424.48705 47.344705 
L 426.814441 47.831488 
L 429.05561 48.571325 
L 430.848275 49.379508 
L 432.569065 50.361755 
L 434.528483 51.762192 
L 436.375595 53.397004 
L 438.119016 55.261395 
L 439.756379 57.337845 
L 441.306565 59.62305 
L 443.010529 62.533933 
L 444.616071 65.684484 
L 446.346502 69.548478 
L 448.18511 74.185572 
L 450.30155 80.167951 
L 452.671273 87.502087 
L 453.729891 91.189892 
L 457.315538 104.987304 
L 458.897964 111.467798 
L 460.885997 119.560658 
L 462.296151 124.524494 
L 463.448991 127.860013 
L 464.499572 130.211479 
L 465.252214 131.447042 
L 466.065015 132.337351 
L 466.728701 132.713785 
L 467.206282 132.79049 
L 467.716399 132.695294 
L 468.262272 132.39476 
L 468.835395 131.860598 
L 469.687757 130.650651 
L 470.690153 128.62879 
L 471.759745 125.890099 
L 473.22994 121.351134 
L 475.158681 114.504392 
L 479.639415 97.397088 
L 479.802832 96.734758 
L 482.389468 86.831958 
L 484.828188 78.510451 
L 487.283772 71.10748 
L 489.232231 65.871393 
L 491.345608 60.782533 
L 493.372722 56.460043 
L 495.162711 53.097574 
L 496.864556 50.317034 
L 498.591779 47.905091 
L 500.079649 46.101498 
L 501.62554 44.583356 
L 503.229254 43.346873 
L 504.878197 42.367466 
L 506.871121 41.465444 
L 509.534281 40.544418 
L 513.538419 39.44709 
L 515.126895 38.96393 
L 516.667623 38.404466 
L 518.676387 37.923368 
L 521.599928 37.482746 
L 525.811881 37.089555 
L 532.409112 36.713167 
L 542.215168 36.39508 
L 553.10391 36.196718 
L 553.10391 36.196718 
" style="fill:none;stroke:#ff0000;stroke-linecap:square;stroke-opacity:0.8;stroke-width:3;"/>
   </g>
   <g id="patch_8">
    <path d="M 334.299139 179.44 
L 334.299139 26.88 
" style="fill:none;stroke:#000000;stroke-linecap:square;stroke-linejoin:miter;stroke-width:0.8;"/>
   </g>
   <g id="patch_9">
    <path d="M 563.523185 179.44 
L 563.523185 26.88 
" style="fill:none;stroke:#000000;stroke-linecap:square;stroke-linejoin:miter;stroke-width:0.8;"/>
   </g>
   <g id="patch_10">
    <path d="M 334.299139 179.44 
L 563.523185 179.44 
" style="fill:none;stroke:#000000;stroke-linecap:square;stroke-linejoin:miter;stroke-width:0.8;"/>
   </g>
   <g id="patch_11">
    <path d="M 334.299139 26.88 
L 563.523185 26.88 
" style="fill:none;stroke:#000000;stroke-linecap:square;stroke-linejoin:miter;stroke-width:0.8;"/>
   </g>
   <g id="text_32">
    <!--   -->
    <g transform="translate(447.004287 20.88)scale(0.12 -0.12)">
     <use xlink:href="#DejaVuSans-32"/>
    </g>
   </g>
  </g>
  <g id="axes_3">
   <g id="patch_12">
    <path d="M 50.87 390.04 
L 280.094046 390.04 
L 280.094046 237.48 
L 50.87 237.48 
z
" style="fill:#ffffff;"/>
   </g>
   <g id="matplotlib.axis_5">
    <g id="xtick_15">
     <g id="line2d_55">
      <path clip-path="url(#p8fba463303)" d="M 61.201074 390.04 
L 61.201074 237.48 
" style="fill:none;stroke:#b0b0b0;stroke-linecap:square;stroke-width:0.8;"/>
     </g>
     <g id="line2d_56">
      <g>
       <use style="stroke:#000000;stroke-width:0.8;" x="61.201074" xlink:href="#m7c366432b4" y="390.04"/>
      </g>
     </g>
     <g id="text_33">
      <!-- 0 -->
      <g transform="translate(58.019824 404.638437)scale(0.1 -0.1)">
       <use xlink:href="#DejaVuSans-48"/>
      </g>
     </g>
    </g>
    <g id="xtick_16">
     <g id="line2d_57">
      <path clip-path="url(#p8fba463303)" d="M 102.174674 390.04 
L 102.174674 237.48 
" style="fill:none;stroke:#b0b0b0;stroke-linecap:square;stroke-width:0.8;"/>
     </g>
     <g id="line2d_58">
      <g>
       <use style="stroke:#000000;stroke-width:0.8;" x="102.174674" xlink:href="#m7c366432b4" y="390.04"/>
      </g>
     </g>
     <g id="text_34">
      <!-- 500 -->
      <g transform="translate(92.630924 404.638437)scale(0.1 -0.1)">
       <use xlink:href="#DejaVuSans-53"/>
       <use x="63.623047" xlink:href="#DejaVuSans-48"/>
       <use x="127.246094" xlink:href="#DejaVuSans-48"/>
      </g>
     </g>
    </g>
    <g id="xtick_17">
     <g id="line2d_59">
      <path clip-path="url(#p8fba463303)" d="M 143.148273 390.04 
L 143.148273 237.48 
" style="fill:none;stroke:#b0b0b0;stroke-linecap:square;stroke-width:0.8;"/>
     </g>
     <g id="line2d_60">
      <g>
       <use style="stroke:#000000;stroke-width:0.8;" x="143.148273" xlink:href="#m7c366432b4" y="390.04"/>
      </g>
     </g>
     <g id="text_35">
      <!-- 1000 -->
      <g transform="translate(130.423273 404.638437)scale(0.1 -0.1)">
       <use xlink:href="#DejaVuSans-49"/>
       <use x="63.623047" xlink:href="#DejaVuSans-48"/>
       <use x="127.246094" xlink:href="#DejaVuSans-48"/>
       <use x="190.869141" xlink:href="#DejaVuSans-48"/>
      </g>
     </g>
    </g>
    <g id="xtick_18">
     <g id="line2d_61">
      <path clip-path="url(#p8fba463303)" d="M 184.121872 390.04 
L 184.121872 237.48 
" style="fill:none;stroke:#b0b0b0;stroke-linecap:square;stroke-width:0.8;"/>
     </g>
     <g id="line2d_62">
      <g>
       <use style="stroke:#000000;stroke-width:0.8;" x="184.121872" xlink:href="#m7c366432b4" y="390.04"/>
      </g>
     </g>
     <g id="text_36">
      <!-- 1500 -->
      <g transform="translate(171.396872 404.638437)scale(0.1 -0.1)">
       <use xlink:href="#DejaVuSans-49"/>
       <use x="63.623047" xlink:href="#DejaVuSans-53"/>
       <use x="127.246094" xlink:href="#DejaVuSans-48"/>
       <use x="190.869141" xlink:href="#DejaVuSans-48"/>
      </g>
     </g>
    </g>
    <g id="xtick_19">
     <g id="line2d_63">
      <path clip-path="url(#p8fba463303)" d="M 225.095471 390.04 
L 225.095471 237.48 
" style="fill:none;stroke:#b0b0b0;stroke-linecap:square;stroke-width:0.8;"/>
     </g>
     <g id="line2d_64">
      <g>
       <use style="stroke:#000000;stroke-width:0.8;" x="225.095471" xlink:href="#m7c366432b4" y="390.04"/>
      </g>
     </g>
     <g id="text_37">
      <!-- 2000 -->
      <g transform="translate(212.370471 404.638437)scale(0.1 -0.1)">
       <use xlink:href="#DejaVuSans-50"/>
       <use x="63.623047" xlink:href="#DejaVuSans-48"/>
       <use x="127.246094" xlink:href="#DejaVuSans-48"/>
       <use x="190.869141" xlink:href="#DejaVuSans-48"/>
      </g>
     </g>
    </g>
    <g id="xtick_20">
     <g id="line2d_65">
      <path clip-path="url(#p8fba463303)" d="M 266.06907 390.04 
L 266.06907 237.48 
" style="fill:none;stroke:#b0b0b0;stroke-linecap:square;stroke-width:0.8;"/>
     </g>
     <g id="line2d_66">
      <g>
       <use style="stroke:#000000;stroke-width:0.8;" x="266.06907" xlink:href="#m7c366432b4" y="390.04"/>
      </g>
     </g>
     <g id="text_38">
      <!-- 2500 -->
      <g transform="translate(253.34407 404.638437)scale(0.1 -0.1)">
       <use xlink:href="#DejaVuSans-50"/>
       <use x="63.623047" xlink:href="#DejaVuSans-53"/>
       <use x="127.246094" xlink:href="#DejaVuSans-48"/>
       <use x="190.869141" xlink:href="#DejaVuSans-48"/>
      </g>
     </g>
    </g>
    <g id="text_39">
     <!-- Range (km) -->
     <g transform="translate(136.38046 418.316562)scale(0.1 -0.1)">
      <defs>
       <path d="M 44.390625 34.1875 
Q 47.5625 33.109375 50.5625 29.59375 
Q 53.5625 26.078125 56.59375 19.921875 
L 66.609375 0 
L 56 0 
L 46.6875 18.703125 
Q 43.0625 26.03125 39.671875 28.421875 
Q 36.28125 30.8125 30.421875 30.8125 
L 19.671875 30.8125 
L 19.671875 0 
L 9.8125 0 
L 9.8125 72.90625 
L 32.078125 72.90625 
Q 44.578125 72.90625 50.734375 67.671875 
Q 56.890625 62.453125 56.890625 51.90625 
Q 56.890625 45.015625 53.6875 40.46875 
Q 50.484375 35.9375 44.390625 34.1875 
z
M 19.671875 64.796875 
L 19.671875 38.921875 
L 32.078125 38.921875 
Q 39.203125 38.921875 42.84375 42.21875 
Q 46.484375 45.515625 46.484375 51.90625 
Q 46.484375 58.296875 42.84375 61.546875 
Q 39.203125 64.796875 32.078125 64.796875 
z
" id="DejaVuSans-82"/>
       <path d="M 34.28125 27.484375 
Q 23.390625 27.484375 19.1875 25 
Q 14.984375 22.515625 14.984375 16.5 
Q 14.984375 11.71875 18.140625 8.90625 
Q 21.296875 6.109375 26.703125 6.109375 
Q 34.1875 6.109375 38.703125 11.40625 
Q 43.21875 16.703125 43.21875 25.484375 
L 43.21875 27.484375 
z
M 52.203125 31.203125 
L 52.203125 0 
L 43.21875 0 
L 43.21875 8.296875 
Q 40.140625 3.328125 35.546875 0.953125 
Q 30.953125 -1.421875 24.3125 -1.421875 
Q 15.921875 -1.421875 10.953125 3.296875 
Q 6 8.015625 6 15.921875 
Q 6 25.140625 12.171875 29.828125 
Q 18.359375 34.515625 30.609375 34.515625 
L 43.21875 34.515625 
L 43.21875 35.40625 
Q 43.21875 41.609375 39.140625 45 
Q 35.0625 48.390625 27.6875 48.390625 
Q 23 48.390625 18.546875 47.265625 
Q 14.109375 46.140625 10.015625 43.890625 
L 10.015625 52.203125 
Q 14.9375 54.109375 19.578125 55.046875 
Q 24.21875 56 28.609375 56 
Q 40.484375 56 46.34375 49.84375 
Q 52.203125 43.703125 52.203125 31.203125 
z
" id="DejaVuSans-97"/>
       <path d="M 54.890625 33.015625 
L 54.890625 0 
L 45.90625 0 
L 45.90625 32.71875 
Q 45.90625 40.484375 42.875 44.328125 
Q 39.84375 48.1875 33.796875 48.1875 
Q 26.515625 48.1875 22.3125 43.546875 
Q 18.109375 38.921875 18.109375 30.90625 
L 18.109375 0 
L 9.078125 0 
L 9.078125 54.6875 
L 18.109375 54.6875 
L 18.109375 46.1875 
Q 21.34375 51.125 25.703125 53.5625 
Q 30.078125 56 35.796875 56 
Q 45.21875 56 50.046875 50.171875 
Q 54.890625 44.34375 54.890625 33.015625 
z
" id="DejaVuSans-110"/>
      </defs>
      <use xlink:href="#DejaVuSans-82"/>
      <use x="67.232422" xlink:href="#DejaVuSans-97"/>
      <use x="128.511719" xlink:href="#DejaVuSans-110"/>
      <use x="191.890625" xlink:href="#DejaVuSans-103"/>
      <use x="255.367188" xlink:href="#DejaVuSans-101"/>
      <use x="316.890625" xlink:href="#DejaVuSans-32"/>
      <use x="348.677734" xlink:href="#DejaVuSans-40"/>
      <use x="387.691406" xlink:href="#DejaVuSans-107"/>
      <use x="445.601562" xlink:href="#DejaVuSans-109"/>
      <use x="543.013672" xlink:href="#DejaVuSans-41"/>
     </g>
    </g>
   </g>
   <g id="matplotlib.axis_6">
    <g id="ytick_13">
     <g id="line2d_67">
      <path clip-path="url(#p8fba463303)" d="M 50.87 383.06398 
L 280.094046 383.06398 
" style="fill:none;stroke:#b0b0b0;stroke-linecap:square;stroke-width:0.8;"/>
     </g>
     <g id="line2d_68">
      <g>
       <use style="stroke:#000000;stroke-width:0.8;" x="50.87" xlink:href="#m3d607c0e98" y="383.06398"/>
      </g>
     </g>
     <g id="text_40">
      <!-- 0 -->
      <g transform="translate(37.5075 386.863199)scale(0.1 -0.1)">
       <use xlink:href="#DejaVuSans-48"/>
      </g>
     </g>
    </g>
    <g id="ytick_14">
     <g id="line2d_69">
      <path clip-path="url(#p8fba463303)" d="M 50.87 360.296248 
L 280.094046 360.296248 
" style="fill:none;stroke:#b0b0b0;stroke-linecap:square;stroke-width:0.8;"/>
     </g>
     <g id="line2d_70">
      <g>
       <use style="stroke:#000000;stroke-width:0.8;" x="50.87" xlink:href="#m3d607c0e98" y="360.296248"/>
      </g>
     </g>
     <g id="text_41">
      <!-- 20 -->
      <g transform="translate(31.145 364.095467)scale(0.1 -0.1)">
       <use xlink:href="#DejaVuSans-50"/>
       <use x="63.623047" xlink:href="#DejaVuSans-48"/>
      </g>
     </g>
    </g>
    <g id="ytick_15">
     <g id="line2d_71">
      <path clip-path="url(#p8fba463303)" d="M 50.87 337.528517 
L 280.094046 337.528517 
" style="fill:none;stroke:#b0b0b0;stroke-linecap:square;stroke-width:0.8;"/>
     </g>
     <g id="line2d_72">
      <g>
       <use style="stroke:#000000;stroke-width:0.8;" x="50.87" xlink:href="#m3d607c0e98" y="337.528517"/>
      </g>
     </g>
     <g id="text_42">
      <!-- 40 -->
      <g transform="translate(31.145 341.327736)scale(0.1 -0.1)">
       <use xlink:href="#DejaVuSans-52"/>
       <use x="63.623047" xlink:href="#DejaVuSans-48"/>
      </g>
     </g>
    </g>
    <g id="ytick_16">
     <g id="line2d_73">
      <path clip-path="url(#p8fba463303)" d="M 50.87 314.760786 
L 280.094046 314.760786 
" style="fill:none;stroke:#b0b0b0;stroke-linecap:square;stroke-width:0.8;"/>
     </g>
     <g id="line2d_74">
      <g>
       <use style="stroke:#000000;stroke-width:0.8;" x="50.87" xlink:href="#m3d607c0e98" y="314.760786"/>
      </g>
     </g>
     <g id="text_43">
      <!-- 60 -->
      <g transform="translate(31.145 318.560005)scale(0.1 -0.1)">
       <use xlink:href="#DejaVuSans-54"/>
       <use x="63.623047" xlink:href="#DejaVuSans-48"/>
      </g>
     </g>
    </g>
    <g id="ytick_17">
     <g id="line2d_75">
      <path clip-path="url(#p8fba463303)" d="M 50.87 291.993055 
L 280.094046 291.993055 
" style="fill:none;stroke:#b0b0b0;stroke-linecap:square;stroke-width:0.8;"/>
     </g>
     <g id="line2d_76">
      <g>
       <use style="stroke:#000000;stroke-width:0.8;" x="50.87" xlink:href="#m3d607c0e98" y="291.993055"/>
      </g>
     </g>
     <g id="text_44">
      <!-- 80 -->
      <g transform="translate(31.145 295.792273)scale(0.1 -0.1)">
       <use xlink:href="#DejaVuSans-56"/>
       <use x="63.623047" xlink:href="#DejaVuSans-48"/>
      </g>
     </g>
    </g>
    <g id="ytick_18">
     <g id="line2d_77">
      <path clip-path="url(#p8fba463303)" d="M 50.87 269.225323 
L 280.094046 269.225323 
" style="fill:none;stroke:#b0b0b0;stroke-linecap:square;stroke-width:0.8;"/>
     </g>
     <g id="line2d_78">
      <g>
       <use style="stroke:#000000;stroke-width:0.8;" x="50.87" xlink:href="#m3d607c0e98" y="269.225323"/>
      </g>
     </g>
     <g id="text_45">
      <!-- 100 -->
      <g transform="translate(24.7825 273.024542)scale(0.1 -0.1)">
       <use xlink:href="#DejaVuSans-49"/>
       <use x="63.623047" xlink:href="#DejaVuSans-48"/>
       <use x="127.246094" xlink:href="#DejaVuSans-48"/>
      </g>
     </g>
    </g>
    <g id="ytick_19">
     <g id="line2d_79">
      <path clip-path="url(#p8fba463303)" d="M 50.87 246.457592 
L 280.094046 246.457592 
" style="fill:none;stroke:#b0b0b0;stroke-linecap:square;stroke-width:0.8;"/>
     </g>
     <g id="line2d_80">
      <g>
       <use style="stroke:#000000;stroke-width:0.8;" x="50.87" xlink:href="#m3d607c0e98" y="246.457592"/>
      </g>
     </g>
     <g id="text_46">
      <!-- 120 -->
      <g transform="translate(24.7825 250.256811)scale(0.1 -0.1)">
       <use xlink:href="#DejaVuSans-49"/>
       <use x="63.623047" xlink:href="#DejaVuSans-50"/>
       <use x="127.246094" xlink:href="#DejaVuSans-48"/>
      </g>
     </g>
    </g>
    <g id="text_47">
     <!-- Height (km) -->
     <g transform="translate(18.702813 343.545156)rotate(-90)scale(0.1 -0.1)">
      <use xlink:href="#DejaVuSans-72"/>
      <use x="75.195312" xlink:href="#DejaVuSans-101"/>
      <use x="136.71875" xlink:href="#DejaVuSans-105"/>
      <use x="164.501953" xlink:href="#DejaVuSans-103"/>
      <use x="227.978516" xlink:href="#DejaVuSans-104"/>
      <use x="291.357422" xlink:href="#DejaVuSans-116"/>
      <use x="330.566406" xlink:href="#DejaVuSans-32"/>
      <use x="362.353516" xlink:href="#DejaVuSans-40"/>
      <use x="401.367188" xlink:href="#DejaVuSans-107"/>
      <use x="459.277344" xlink:href="#DejaVuSans-109"/>
      <use x="556.689453" xlink:href="#DejaVuSans-41"/>
     </g>
    </g>
   </g>
   <g id="line2d_81">
    <path clip-path="url(#p8fba463303)" d="M 61.289275 244.414545 
L 66.603103 252.808671 
L 72.084697 261.055666 
L 77.239012 268.429743 
L 82.802525 275.975885 
L 87.861387 282.463452 
L 92.742087 288.379005 
L 97.25573 293.537425 
L 101.390114 297.980425 
L 105.763869 302.353966 
L 109.555219 305.832521 
L 113.050965 308.738381 
L 116.436435 311.246131 
L 119.90001 313.555135 
L 123.22259 315.519909 
L 126.542432 317.217864 
L 129.460947 318.476143 
L 132.477112 319.533319 
L 135.433334 320.32075 
L 138.223612 320.834045 
L 141.182142 321.135184 
L 143.974158 321.195728 
L 147.028303 321.025987 
L 150.177702 320.613488 
L 153.558665 319.934057 
L 157.385645 318.919397 
L 161.740931 317.525442 
L 168.137367 315.207101 
L 179.589199 311.016874 
L 184.952417 309.321594 
L 189.524283 308.11114 
L 193.728857 307.229256 
L 197.499205 306.651223 
L 201.335188 306.288353 
L 205.19358 306.16843 
L 209.014334 306.305593 
L 212.751635 306.697611 
L 216.342019 307.323587 
L 219.743209 308.149073 
L 222.933746 309.134353 
L 226.301025 310.400468 
L 229.744255 311.939832 
L 233.174067 313.722948 
L 236.534236 315.714408 
L 240.042407 318.053938 
L 243.60035 320.699704 
L 247.148352 323.613288 
L 250.767707 326.8721 
L 254.4927 330.533791 
L 258.038907 334.326598 
L 261.139611 337.952405 
L 263.385636 340.898032 
L 264.988479 343.350746 
L 266.196803 345.606681 
L 267.114819 347.787095 
L 267.854908 350.117679 
L 268.453311 352.739014 
L 268.943834 355.927432 
L 269.315683 359.89416 
L 269.554657 364.944272 
L 269.65377 372.201772 
L 269.674771 383.105455 
L 269.674771 383.105455 
" style="fill:none;stroke:#008000;stroke-linecap:square;stroke-opacity:0.8;stroke-width:3;"/>
   </g>
   <g id="patch_13">
    <path d="M 50.87 390.04 
L 50.87 237.48 
" style="fill:none;stroke:#000000;stroke-linecap:square;stroke-linejoin:miter;stroke-width:0.8;"/>
   </g>
   <g id="patch_14">
    <path d="M 280.094046 390.04 
L 280.094046 237.48 
" style="fill:none;stroke:#000000;stroke-linecap:square;stroke-linejoin:miter;stroke-width:0.8;"/>
   </g>
   <g id="patch_15">
    <path d="M 50.87 390.04 
L 280.094046 390.04 
" style="fill:none;stroke:#000000;stroke-linecap:square;stroke-linejoin:miter;stroke-width:0.8;"/>
   </g>
   <g id="patch_16">
    <path d="M 50.87 237.48 
L 280.094046 237.48 
" style="fill:none;stroke:#000000;stroke-linecap:square;stroke-linejoin:miter;stroke-width:0.8;"/>
   </g>
   <g id="text_48">
    <!--   -->
    <g transform="translate(163.575148 231.48)scale(0.12 -0.12)">
     <use xlink:href="#DejaVuSans-32"/>
    </g>
   </g>
  </g>
  <g id="axes_4">
   <g id="patch_17">
    <path d="M 334.299139 390.04 
L 563.523185 390.04 
L 563.523185 237.48 
L 334.299139 237.48 
z
" style="fill:#ffffff;"/>
   </g>
   <g id="matplotlib.axis_7">
    <g id="xtick_21">
     <g id="line2d_82">
      <path clip-path="url(#p12012b8b2b)" d="M 344.683413 390.04 
L 344.683413 237.48 
" style="fill:none;stroke:#b0b0b0;stroke-linecap:square;stroke-width:0.8;"/>
     </g>
     <g id="line2d_83">
      <g>
       <use style="stroke:#000000;stroke-width:0.8;" x="344.683413" xlink:href="#m7c366432b4" y="390.04"/>
      </g>
     </g>
     <g id="text_49">
      <!-- 0 -->
      <g transform="translate(341.502163 404.638437)scale(0.1 -0.1)">
       <use xlink:href="#DejaVuSans-48"/>
      </g>
     </g>
    </g>
    <g id="xtick_22">
     <g id="line2d_84">
      <path clip-path="url(#p12012b8b2b)" d="M 379.684689 390.04 
L 379.684689 237.48 
" style="fill:none;stroke:#b0b0b0;stroke-linecap:square;stroke-width:0.8;"/>
     </g>
     <g id="line2d_85">
      <g>
       <use style="stroke:#000000;stroke-width:0.8;" x="379.684689" xlink:href="#m7c366432b4" y="390.04"/>
      </g>
     </g>
     <g id="text_50">
      <!-- 100 -->
      <g transform="translate(370.140939 404.638437)scale(0.1 -0.1)">
       <use xlink:href="#DejaVuSans-49"/>
       <use x="63.623047" xlink:href="#DejaVuSans-48"/>
       <use x="127.246094" xlink:href="#DejaVuSans-48"/>
      </g>
     </g>
    </g>
    <g id="xtick_23">
     <g id="line2d_86">
      <path clip-path="url(#p12012b8b2b)" d="M 414.685966 390.04 
L 414.685966 237.48 
" style="fill:none;stroke:#b0b0b0;stroke-linecap:square;stroke-width:0.8;"/>
     </g>
     <g id="line2d_87">
      <g>
       <use style="stroke:#000000;stroke-width:0.8;" x="414.685966" xlink:href="#m7c366432b4" y="390.04"/>
      </g>
     </g>
     <g id="text_51">
      <!-- 200 -->
      <g transform="translate(405.142216 404.638437)scale(0.1 -0.1)">
       <use xlink:href="#DejaVuSans-50"/>
       <use x="63.623047" xlink:href="#DejaVuSans-48"/>
       <use x="127.246094" xlink:href="#DejaVuSans-48"/>
      </g>
     </g>
    </g>
    <g id="xtick_24">
     <g id="line2d_88">
      <path clip-path="url(#p12012b8b2b)" d="M 449.687242 390.04 
L 449.687242 237.48 
" style="fill:none;stroke:#b0b0b0;stroke-linecap:square;stroke-width:0.8;"/>
     </g>
     <g id="line2d_89">
      <g>
       <use style="stroke:#000000;stroke-width:0.8;" x="449.687242" xlink:href="#m7c366432b4" y="390.04"/>
      </g>
     </g>
     <g id="text_52">
      <!-- 300 -->
      <g transform="translate(440.143492 404.638437)scale(0.1 -0.1)">
       <use xlink:href="#DejaVuSans-51"/>
       <use x="63.623047" xlink:href="#DejaVuSans-48"/>
       <use x="127.246094" xlink:href="#DejaVuSans-48"/>
      </g>
     </g>
    </g>
    <g id="xtick_25">
     <g id="line2d_90">
      <path clip-path="url(#p12012b8b2b)" d="M 484.688519 390.04 
L 484.688519 237.48 
" style="fill:none;stroke:#b0b0b0;stroke-linecap:square;stroke-width:0.8;"/>
     </g>
     <g id="line2d_91">
      <g>
       <use style="stroke:#000000;stroke-width:0.8;" x="484.688519" xlink:href="#m7c366432b4" y="390.04"/>
      </g>
     </g>
     <g id="text_53">
      <!-- 400 -->
      <g transform="translate(475.144769 404.638437)scale(0.1 -0.1)">
       <use xlink:href="#DejaVuSans-52"/>
       <use x="63.623047" xlink:href="#DejaVuSans-48"/>
       <use x="127.246094" xlink:href="#DejaVuSans-48"/>
      </g>
     </g>
    </g>
    <g id="xtick_26">
     <g id="line2d_92">
      <path clip-path="url(#p12012b8b2b)" d="M 519.689796 390.04 
L 519.689796 237.48 
" style="fill:none;stroke:#b0b0b0;stroke-linecap:square;stroke-width:0.8;"/>
     </g>
     <g id="line2d_93">
      <g>
       <use style="stroke:#000000;stroke-width:0.8;" x="519.689796" xlink:href="#m7c366432b4" y="390.04"/>
      </g>
     </g>
     <g id="text_54">
      <!-- 500 -->
      <g transform="translate(510.146046 404.638437)scale(0.1 -0.1)">
       <use xlink:href="#DejaVuSans-53"/>
       <use x="63.623047" xlink:href="#DejaVuSans-48"/>
       <use x="127.246094" xlink:href="#DejaVuSans-48"/>
      </g>
     </g>
    </g>
    <g id="xtick_27">
     <g id="line2d_94">
      <path clip-path="url(#p12012b8b2b)" d="M 554.691072 390.04 
L 554.691072 237.48 
" style="fill:none;stroke:#b0b0b0;stroke-linecap:square;stroke-width:0.8;"/>
     </g>
     <g id="line2d_95">
      <g>
       <use style="stroke:#000000;stroke-width:0.8;" x="554.691072" xlink:href="#m7c366432b4" y="390.04"/>
      </g>
     </g>
     <g id="text_55">
      <!-- 600 -->
      <g transform="translate(545.147322 404.638437)scale(0.1 -0.1)">
       <use xlink:href="#DejaVuSans-54"/>
       <use x="63.623047" xlink:href="#DejaVuSans-48"/>
       <use x="127.246094" xlink:href="#DejaVuSans-48"/>
      </g>
     </g>
    </g>
    <g id="text_56">
     <!-- Time (s) -->
     <g transform="translate(428.582256 418.316562)scale(0.1 -0.1)">
      <use xlink:href="#DejaVuSans-84"/>
      <use x="57.958984" xlink:href="#DejaVuSans-105"/>
      <use x="85.742188" xlink:href="#DejaVuSans-109"/>
      <use x="183.154297" xlink:href="#DejaVuSans-101"/>
      <use x="244.677734" xlink:href="#DejaVuSans-32"/>
      <use x="276.464844" xlink:href="#DejaVuSans-40"/>
      <use x="315.478516" xlink:href="#DejaVuSans-115"/>
      <use x="367.578125" xlink:href="#DejaVuSans-41"/>
     </g>
    </g>
   </g>
   <g id="matplotlib.axis_8">
    <g id="ytick_20">
     <g id="line2d_96">
      <path clip-path="url(#p12012b8b2b)" d="M 334.299139 380.116366 
L 563.523185 380.116366 
" style="fill:none;stroke:#b0b0b0;stroke-linecap:square;stroke-width:0.8;"/>
     </g>
     <g id="line2d_97">
      <g>
       <use style="stroke:#000000;stroke-width:0.8;" x="334.299139" xlink:href="#m3d607c0e98" y="380.116366"/>
      </g>
     </g>
     <g id="text_57">
      <!-- 0.15 -->
      <g transform="translate(305.033514 383.915585)scale(0.1 -0.1)">
       <defs>
        <path d="M 10.6875 12.40625 
L 21 12.40625 
L 21 0 
L 10.6875 0 
z
" id="DejaVuSans-46"/>
       </defs>
       <use xlink:href="#DejaVuSans-48"/>
       <use x="63.623047" xlink:href="#DejaVuSans-46"/>
       <use x="95.410156" xlink:href="#DejaVuSans-49"/>
       <use x="159.033203" xlink:href="#DejaVuSans-53"/>
      </g>
     </g>
    </g>
    <g id="ytick_21">
     <g id="line2d_98">
      <path clip-path="url(#p12012b8b2b)" d="M 334.299139 348.992095 
L 563.523185 348.992095 
" style="fill:none;stroke:#b0b0b0;stroke-linecap:square;stroke-width:0.8;"/>
     </g>
     <g id="line2d_99">
      <g>
       <use style="stroke:#000000;stroke-width:0.8;" x="334.299139" xlink:href="#m3d607c0e98" y="348.992095"/>
      </g>
     </g>
     <g id="text_58">
      <!-- 0.20 -->
      <g transform="translate(305.033514 352.791314)scale(0.1 -0.1)">
       <use xlink:href="#DejaVuSans-48"/>
       <use x="63.623047" xlink:href="#DejaVuSans-46"/>
       <use x="95.410156" xlink:href="#DejaVuSans-50"/>
       <use x="159.033203" xlink:href="#DejaVuSans-48"/>
      </g>
     </g>
    </g>
    <g id="ytick_22">
     <g id="line2d_100">
      <path clip-path="url(#p12012b8b2b)" d="M 334.299139 317.867824 
L 563.523185 317.867824 
" style="fill:none;stroke:#b0b0b0;stroke-linecap:square;stroke-width:0.8;"/>
     </g>
     <g id="line2d_101">
      <g>
       <use style="stroke:#000000;stroke-width:0.8;" x="334.299139" xlink:href="#m3d607c0e98" y="317.867824"/>
      </g>
     </g>
     <g id="text_59">
      <!-- 0.25 -->
      <g transform="translate(305.033514 321.667043)scale(0.1 -0.1)">
       <use xlink:href="#DejaVuSans-48"/>
       <use x="63.623047" xlink:href="#DejaVuSans-46"/>
       <use x="95.410156" xlink:href="#DejaVuSans-50"/>
       <use x="159.033203" xlink:href="#DejaVuSans-53"/>
      </g>
     </g>
    </g>
    <g id="ytick_23">
     <g id="line2d_102">
      <path clip-path="url(#p12012b8b2b)" d="M 334.299139 286.743554 
L 563.523185 286.743554 
" style="fill:none;stroke:#b0b0b0;stroke-linecap:square;stroke-width:0.8;"/>
     </g>
     <g id="line2d_103">
      <g>
       <use style="stroke:#000000;stroke-width:0.8;" x="334.299139" xlink:href="#m3d607c0e98" y="286.743554"/>
      </g>
     </g>
     <g id="text_60">
      <!-- 0.30 -->
      <g transform="translate(305.033514 290.542772)scale(0.1 -0.1)">
       <use xlink:href="#DejaVuSans-48"/>
       <use x="63.623047" xlink:href="#DejaVuSans-46"/>
       <use x="95.410156" xlink:href="#DejaVuSans-51"/>
       <use x="159.033203" xlink:href="#DejaVuSans-48"/>
      </g>
     </g>
    </g>
    <g id="ytick_24">
     <g id="line2d_104">
      <path clip-path="url(#p12012b8b2b)" d="M 334.299139 255.619283 
L 563.523185 255.619283 
" style="fill:none;stroke:#b0b0b0;stroke-linecap:square;stroke-width:0.8;"/>
     </g>
     <g id="line2d_105">
      <g>
       <use style="stroke:#000000;stroke-width:0.8;" x="334.299139" xlink:href="#m3d607c0e98" y="255.619283"/>
      </g>
     </g>
     <g id="text_61">
      <!-- 0.35 -->
      <g transform="translate(305.033514 259.418502)scale(0.1 -0.1)">
       <use xlink:href="#DejaVuSans-48"/>
       <use x="63.623047" xlink:href="#DejaVuSans-46"/>
       <use x="95.410156" xlink:href="#DejaVuSans-51"/>
       <use x="159.033203" xlink:href="#DejaVuSans-53"/>
      </g>
     </g>
    </g>
    <g id="text_62">
     <!-- L/D -->
     <g transform="translate(298.953827 322.080312)rotate(-90)scale(0.1 -0.1)">
      <defs>
       <path d="M 9.8125 72.90625 
L 19.671875 72.90625 
L 19.671875 8.296875 
L 55.171875 8.296875 
L 55.171875 0 
L 9.8125 0 
z
" id="DejaVuSans-76"/>
       <path d="M 25.390625 72.90625 
L 33.6875 72.90625 
L 8.296875 -9.28125 
L 0 -9.28125 
z
" id="DejaVuSans-47"/>
       <path d="M 19.671875 64.796875 
L 19.671875 8.109375 
L 31.59375 8.109375 
Q 46.6875 8.109375 53.6875 14.9375 
Q 60.6875 21.78125 60.6875 36.53125 
Q 60.6875 51.171875 53.6875 57.984375 
Q 46.6875 64.796875 31.59375 64.796875 
z
M 9.8125 72.90625 
L 30.078125 72.90625 
Q 51.265625 72.90625 61.171875 64.09375 
Q 71.09375 55.28125 71.09375 36.53125 
Q 71.09375 17.671875 61.125 8.828125 
Q 51.171875 0 30.078125 0 
L 9.8125 0 
z
" id="DejaVuSans-68"/>
      </defs>
      <use xlink:href="#DejaVuSans-76"/>
      <use x="55.712891" xlink:href="#DejaVuSans-47"/>
      <use x="89.404297" xlink:href="#DejaVuSans-68"/>
     </g>
    </g>
   </g>
   <g id="line2d_106">
    <path clip-path="url(#p12012b8b2b)" d="M 344.718414 244.414545 
L 365.778336 244.414545 
L 365.883967 383.105455 
L 366.010261 368.56986 
L 366.253492 377.975092 
L 366.496153 379.888563 
L 366.856839 380.980322 
L 367.21202 381.34502 
L 367.792429 381.50897 
L 369.40107 381.548496 
L 454.229182 381.549069 
L 553.10391 381.549069 
L 553.10391 381.549069 
" style="fill:none;stroke:#000000;stroke-linecap:square;stroke-opacity:0.8;stroke-width:3;"/>
   </g>
   <g id="patch_18">
    <path d="M 334.299139 390.04 
L 334.299139 237.48 
" style="fill:none;stroke:#000000;stroke-linecap:square;stroke-linejoin:miter;stroke-width:0.8;"/>
   </g>
   <g id="patch_19">
    <path d="M 563.523185 390.04 
L 563.523185 237.48 
" style="fill:none;stroke:#000000;stroke-linecap:square;stroke-linejoin:miter;stroke-width:0.8;"/>
   </g>
   <g id="patch_20">
    <path d="M 334.299139 390.04 
L 563.523185 390.04 
" style="fill:none;stroke:#000000;stroke-linecap:square;stroke-linejoin:miter;stroke-width:0.8;"/>
   </g>
   <g id="patch_21">
    <path d="M 334.299139 237.48 
L 563.523185 237.48 
" style="fill:none;stroke:#000000;stroke-linecap:square;stroke-linejoin:miter;stroke-width:0.8;"/>
   </g>
   <g id="text_63">
    <!--   -->
    <g transform="translate(447.004287 231.48)scale(0.12 -0.12)">
     <use xlink:href="#DejaVuSans-32"/>
    </g>
   </g>
  </g>
 </g>
 <defs>
  <clipPath id="p297699f5a4">
   <rect height="152.56" width="229.224046" x="50.87" y="26.88"/>
  </clipPath>
  <clipPath id="p0a1d1da14d">
   <rect height="152.56" width="229.224046" x="334.299139" y="26.88"/>
  </clipPath>
  <clipPath id="p8fba463303">
   <rect height="152.56" width="229.224046" x="50.87" y="237.48"/>
  </clipPath>
  <clipPath id="p12012b8b2b">
   <rect height="152.56" width="229.224046" x="334.299139" y="237.48"/>
  </clipPath>
 </defs>
</svg>
